<?xml version="1.0" standalone="no"?>
<!DOCTYPE svg PUBLIC "-//W3C//DTD SVG 20010904//EN"
 "http://www.w3.org/TR/2001/REC-SVG-20010904/DTD/svg10.dtd">
<svg version="1.0" xmlns="http://www.w3.org/2000/svg"
 width="1221.000000pt" height="1221.000000pt" viewBox="0 0 1221.000000 1221.000000"
 preserveAspectRatio="xMidYMid meet">
<metadata>
Created by potrace 1.11, written by Peter Selinger 2001-2013
</metadata>
<g transform="translate(0.000000,1221.000000) scale(0.100000,-0.100000)"
fill="#000000" stroke="none">
<path d="M1660 9989 c-343 -39 -638 -163 -915 -386 -394 -317 -573 -678 -636
-1278 -17 -167 -17 -1393 0 -1560 47 -450 162 -766 372 -1019 216 -260 510
-463 819 -564 213 -71 424 -97 704 -89 454 13 799 115 1081 321 304 222 513
503 618 831 95 297 126 631 127 1338 l0 327 -955 0 -955 0 0 -495 0 -495 356
0 357 0 -6 -122 c-8 -193 -52 -315 -155 -437 -141 -166 -423 -247 -686 -196
-93 17 -150 42 -230 99 -70 50 -99 84 -150 177 -59 110 -83 232 -107 544 -14
194 -14 926 0 1120 26 340 52 458 129 576 120 184 301 268 552 255 130 -6 247
-32 323 -73 119 -63 233 -218 288 -390 l23 -73 603 0 602 0 -5 33 c-41 245
-128 507 -227 687 -131 237 -350 465 -578 604 -322 195 -650 278 -1089 275
-102 -1 -219 -5 -260 -10z"/>
<path d="M4640 7545 l0 -2415 1640 0 1640 0 0 530 0 530 -1050 0 -1050 0 2
423 3 422 893 3 892 2 0 525 0 525 -892 2 -893 3 -3 403 -2 402 1050 0 1050 0
0 530 0 530 -1640 0 -1640 0 0 -2415z"/>
<path d="M8470 9430 l0 -530 595 0 595 0 0 -1885 0 -1885 590 0 590 0 0 1885
0 1885 595 0 595 0 0 530 0 530 -1780 0 -1780 0 0 -530z"/>
<path d="M174 4600 c-39 -15 -82 -77 -90 -126 -10 -71 2 -184 24 -213 52 -70
135 -89 212 -49 58 30 80 72 80 156 l0 62 -80 0 -80 0 0 -40 c0 -38 2 -40 30
-40 36 0 40 -20 10 -50 -25 -25 -52 -26 -73 -2 -24 26 -24 183 -1 206 24 24
61 20 80 -9 14 -21 24 -25 65 -25 40 0 49 3 49 18 0 28 -37 81 -72 102 -35 21
-114 26 -154 10z"/>
<path d="M530 4400 l0 -210 140 0 140 0 0 50 0 50 -90 0 -90 0 0 35 0 35 75 0
75 0 0 45 0 45 -75 0 -75 0 0 35 0 35 90 0 90 0 0 45 0 45 -140 0 -140 0 0
-210z"/>
<path d="M942 4403 l3 -208 47 -3 47 -3 3 103 3 103 68 -103 67 -103 43 3 42
3 0 205 0 205 -52 3 -53 3 0 -102 0 -103 -63 100 -63 99 -47 3 -47 3 2 -208z"/>
<path d="M1460 4586 c-56 -37 -65 -65 -65 -187 0 -93 3 -111 21 -135 39 -53
71 -69 134 -69 99 0 147 53 157 174 13 155 -45 241 -164 241 -34 0 -58 -7 -83
-24z m124 -82 c12 -12 16 -37 16 -104 0 -84 -2 -91 -25 -106 -36 -24 -63 -10
-76 39 -13 47 -5 152 12 173 15 19 54 18 73 -2z"/>
<path d="M1834 4597 c-2 -7 -3 -100 -2 -207 l3 -195 50 0 50 0 5 90 5 90 24
-42 c21 -37 29 -43 57 -43 29 0 37 6 61 48 l28 47 3 -97 3 -98 49 0 50 0 0
210 0 210 -50 0 -50 0 -46 -92 -47 -93 -46 93 -46 92 -48 0 c-29 0 -49 -5 -53
-13z"/>
<path d="M2360 4400 l0 -210 140 0 140 0 0 50 0 50 -90 0 -90 0 0 35 0 35 75
0 75 0 0 45 0 45 -75 0 -75 0 0 35 0 35 90 0 90 0 0 45 0 45 -140 0 -140 0 0
-210z"/>
<path d="M2823 4595 c-80 -35 -99 -165 -30 -209 13 -9 48 -20 78 -26 55 -10
82 -31 72 -56 -8 -21 -64 -27 -110 -11 -42 14 -42 14 -74 -19 l-32 -33 34 -20
c39 -24 106 -36 154 -28 87 14 130 61 129 139 0 44 -5 55 -32 79 -17 15 -48
31 -69 34 -72 12 -84 16 -90 30 -13 37 59 61 106 35 14 -7 25 -2 51 25 l32 33
-40 21 c-48 25 -131 27 -179 6z"/>
<path d="M3810 4405 l0 -205 135 0 135 0 0 40 0 39 -87 3 -88 3 0 35 0 35 78
3 77 3 0 44 0 45 -81 0 -80 0 3 33 3 32 88 3 87 3 0 44 0 45 -135 0 -135 0 0
-205z"/>
<path d="M4220 4405 l0 -205 45 0 45 0 0 95 c0 52 3 95 8 95 4 0 34 -43 67
-95 l60 -95 47 0 48 0 0 205 0 205 -50 0 -49 0 -3 -102 -3 -103 -67 103 c-67
101 -68 102 -108 102 l-40 0 0 -205z"/>
<path d="M4640 4603 c0 -5 29 -96 64 -203 l63 -195 40 -3 41 -3 66 198 c36
109 66 202 66 206 0 4 -23 7 -51 5 l-52 -3 -27 -93 c-16 -51 -31 -101 -35
-110 -8 -19 -8 -21 -50 121 l-26 87 -50 0 c-27 0 -49 -3 -49 -7z"/>
<path d="M5090 4405 l0 -205 45 0 45 0 0 205 0 205 -45 0 -45 0 0 -205z"/>
<path d="M5330 4405 l0 -205 50 0 50 0 0 75 c0 60 3 75 15 75 9 0 31 -31 52
-75 l37 -75 59 0 58 0 -42 80 -42 81 20 22 c47 51 54 96 26 154 -25 53 -76 73
-190 73 l-93 0 0 -205z m181 105 c43 -24 11 -80 -47 -80 -34 0 -34 0 -34 45 0
44 1 45 31 45 17 0 39 -5 50 -10z"/>
<path d="M5831 4593 c-62 -32 -76 -62 -79 -173 -5 -128 14 -177 80 -209 56
-27 93 -27 148 2 64 32 80 70 80 187 0 106 -15 149 -62 183 -38 28 -123 33
-167 10z m113 -95 c11 -16 16 -46 16 -100 0 -65 -3 -81 -20 -98 -11 -11 -27
-20 -35 -20 -8 0 -24 9 -35 20 -17 17 -20 33 -20 98 0 87 16 122 55 122 13 0
31 -10 39 -22z"/>
<path d="M6190 4405 l0 -205 50 0 50 0 0 103 1 102 65 -102 66 -103 44 0 44 0
0 205 0 205 -50 0 -50 0 0 -102 0 -103 -66 103 -66 102 -44 0 -44 0 0 -205z"/>
<path d="M6660 4406 l0 -206 45 0 45 0 0 90 c0 50 3 90 8 90 4 0 18 -20 32
-45 21 -39 29 -45 56 -45 28 0 36 7 61 48 l28 47 3 -92 3 -93 49 0 50 0 0 205
0 205 -50 0 -50 0 -46 -92 -46 -91 -47 89 -47 89 -47 3 -47 3 0 -205z"/>
<path d="M7180 4405 l0 -205 140 0 140 0 0 40 0 39 -87 3 -88 3 -3 38 -3 37
75 0 76 0 0 45 0 45 -75 0 -75 0 0 35 0 35 90 0 90 0 0 45 0 45 -140 0 -140 0
0 -205z"/>
<path d="M7590 4405 l0 -205 50 0 50 0 0 103 1 102 65 -102 66 -103 44 0 44 0
0 205 0 205 -50 0 -50 0 0 -102 0 -103 -66 103 -66 102 -44 0 -44 0 0 -205z"/>
<path d="M8030 4565 l0 -45 50 0 50 0 0 -160 0 -160 50 0 50 0 0 160 0 160 50
0 50 0 0 45 0 45 -150 0 -150 0 0 -45z"/>
<path d="M8503 4592 c-45 -24 -66 -57 -67 -107 -2 -79 29 -106 149 -131 27 -6
41 -15 43 -28 8 -42 -58 -59 -122 -32 -32 14 -35 13 -60 -13 -14 -15 -26 -32
-26 -38 0 -20 83 -48 144 -48 73 0 112 18 144 65 19 28 23 44 19 80 -7 60 -47
97 -117 106 -27 4 -58 12 -67 20 -44 32 45 72 98 44 18 -10 25 -8 50 16 16 15
29 32 29 36 0 5 -19 18 -42 28 -53 24 -132 25 -175 2z"/>
<path d="M11703 4600 c-82 -26 -113 -141 -55 -200 20 -20 43 -30 78 -35 27 -4
57 -12 67 -17 20 -10 22 -39 5 -56 -17 -17 -83 -15 -117 3 -27 13 -30 13 -56
-15 -16 -16 -24 -33 -20 -40 14 -23 75 -40 140 -40 110 0 155 37 155 127 0 73
-25 99 -109 116 -78 15 -99 38 -62 68 28 23 47 24 83 5 25 -13 28 -12 57 18
l31 32 -30 18 c-36 21 -122 29 -167 16z"/>
<path d="M9700 4560 l0 -40 50 0 50 0 0 -160 0 -160 50 0 50 0 0 160 0 160 50
0 50 0 0 40 0 40 -150 0 -150 0 0 -40z"/>
<path d="M10120 4400 l0 -200 50 0 50 0 0 75 c0 65 2 75 18 75 12 0 29 -24 55
-75 l37 -75 55 0 56 0 -40 78 c-42 80 -49 102 -31 102 17 0 50 63 50 93 0 42
-26 90 -59 110 -23 13 -53 17 -135 17 l-106 0 0 -200z m194 98 c24 -33 1 -62
-53 -66 l-41 -3 0 45 0 46 39 0 c30 0 44 -6 55 -22z"/>
<path d="M10595 4413 c-37 -103 -70 -194 -73 -200 -3 -9 10 -13 46 -13 47 0
51 2 61 30 10 29 12 30 76 30 65 0 66 0 72 -30 5 -28 8 -30 54 -30 27 0 49 4
49 9 0 5 -31 94 -69 198 l-68 188 -40 3 -40 3 -68 -188z m125 -4 c6 -22 14
-47 17 -55 4 -10 -4 -14 -31 -14 -20 0 -36 4 -36 8 0 12 31 102 36 102 2 0 8
-18 14 -41z"/>
<path d="M11000 4400 l0 -200 45 0 45 0 0 200 0 200 -45 0 -45 0 0 -200z"/>
<path d="M11210 4561 l0 -40 53 -3 52 -3 3 -157 3 -158 44 0 45 0 0 160 0 160
50 0 50 0 0 40 0 40 -150 0 -150 0 0 -39z"/>
<path d="M3355 4510 c-85 -35 -104 -155 -34 -214 111 -94 265 38 189 162 -31
50 -102 74 -155 52z"/>
<path d="M9123 4506 c-39 -18 -73 -70 -73 -111 0 -77 75 -144 145 -131 75 14
127 93 106 159 -25 76 -108 114 -178 83z"/>
<path d="M576 3854 c-305 -66 -510 -337 -494 -653 14 -265 178 -479 433 -567
69 -24 96 -28 200 -28 107 -1 130 2 209 28 55 18 118 48 163 79 82 54 81 47
11 125 l-38 42 -56 -40 c-317 -222 -754 7 -754 395 1 140 47 250 144 343 171
165 415 188 598 56 27 -19 51 -34 56 -34 4 0 29 26 56 57 l50 56 -33 28 c-127
105 -357 153 -545 113z"/>
<path d="M1930 3855 c-36 -8 -101 -32 -145 -54 -343 -170 -454 -598 -239 -922
176 -265 541 -355 844 -207 167 82 296 251 334 440 20 97 20 149 1 246 -44
221 -207 405 -422 478 -98 33 -271 42 -373 19z m275 -150 c133 -35 262 -141
315 -259 130 -287 -20 -603 -325 -681 -211 -54 -446 58 -540 257 -92 194 -57
407 89 554 123 122 298 171 461 129z"/>
<path d="M10430 3854 c-148 -31 -305 -139 -388 -266 -254 -391 -30 -903 429
-977 137 -23 263 -5 384 53 71 34 155 90 155 104 0 4 -22 32 -49 62 l-48 55
-36 -32 c-87 -76 -232 -115 -358 -96 -263 41 -449 291 -409 549 55 353 450
528 741 327 l52 -35 56 56 56 57 -30 25 c-50 41 -186 103 -260 119 -87 18
-209 18 -295 -1z"/>
<path d="M3090 3235 l0 -615 80 0 80 0 2 470 3 470 325 -468 325 -467 78 -3
77 -3 0 616 0 615 -80 0 -80 0 -2 -471 -3 -471 -326 469 -325 468 -77 3 -77 3
0 -616z"/>
<path d="M4450 3235 l0 -615 80 0 80 0 0 275 0 275 240 0 240 0 0 75 0 75
-240 0 -240 0 0 190 0 190 240 0 240 0 0 75 0 75 -320 0 -320 0 0 -615z"/>
<path d="M5450 3235 l0 -615 320 0 320 0 0 75 0 75 -240 0 -240 0 0 200 0 200
240 0 240 0 0 75 0 75 -240 0 -240 0 0 190 0 190 240 0 240 0 0 75 0 75 -320
0 -320 0 0 -615z"/>
<path d="M6450 3236 l0 -616 80 0 80 0 0 258 1 257 151 -160 c84 -88 195 -204
248 -258 l95 -98 110 3 109 3 -234 239 -235 240 35 9 c78 20 146 50 190 83
182 139 183 433 3 570 -23 18 -68 43 -100 55 -54 21 -76 24 -295 27 l-238 4 0
-616z m448 459 c28 -9 65 -27 82 -42 97 -81 103 -253 11 -336 -53 -48 -122
-67 -263 -74 l-118 -6 0 237 0 236 118 0 c77 0 136 -5 170 -15z"/>
<path d="M7620 3235 l0 -615 320 0 320 0 0 75 0 75 -240 0 -240 0 0 200 0 200
240 0 240 0 0 75 0 75 -240 0 -240 0 0 190 0 190 240 0 240 0 0 75 0 75 -320
0 -320 0 0 -615z"/>
<path d="M8610 3235 l0 -615 80 0 80 0 0 473 c1 447 2 471 18 451 9 -11 158
-224 331 -472 l315 -452 73 0 73 0 0 615 0 615 -80 0 -80 0 -2 -467 -3 -468
-325 468 -325 467 -77 0 -78 0 0 -615z"/>
<path d="M11330 3235 l0 -615 320 0 320 0 0 75 0 75 -240 0 -240 0 0 200 0
200 240 0 240 0 0 75 0 75 -240 0 -240 0 0 190 0 190 240 0 240 0 0 75 0 75
-320 0 -320 0 0 -615z"/>
</g>
</svg>
